<?xml version="1.0" encoding="utf-8"?>
<!-- Generator: Adobe Illustrator 26.5.0, SVG Export Plug-In . SVG Version: 6.00 Build 0)  -->
<svg version="1.1" id="Camada_1" xmlns="http://www.w3.org/2000/svg" xmlns:xlink="http://www.w3.org/1999/xlink" x="0px" y="0px"
	 viewBox="0 0 50 50" style="enable-background:new 0 0 50 50;" xml:space="preserve">
<g>
	<path d="M43.73,11.45l4.68-9.36h-3.68l0,0l-19.43,0H24.7l-19.82,0v0h-3.3l4.68,9.36c-2.94,3.91-4.68,8.78-4.68,14.05
		c0,5.27,1.74,10.13,4.68,14.05l-4.68,9.36h3.68l0,0l19.42,0h0.01c0,0,0,0,0,0h0.6l19.82,0v0h3.3l-4.68-9.36
		c2.94-3.91,4.68-8.78,4.68-14.05C48.41,20.23,46.67,15.37,43.73,11.45z M13.02,5.38c-1.6,0.96-3.08,2.1-4.41,3.4l-1.7-3.39l0,0
		H13.02z M23.32,5.45l-8.18,16.37l-4.96-9.92c0.19-0.21,0.39-0.42,0.6-0.63C14.18,7.87,18.58,5.84,23.32,5.45z M4.88,25.5
		c0-3.84,1.07-7.52,3.07-10.69l5.35,10.69L7.95,36.19C5.95,33.02,4.88,29.34,4.88,25.5z M6.92,45.62l1.7-3.39
		c1.32,1.3,2.8,2.44,4.4,3.39H6.92z M23.35,45.62L23.35,45.62l-0.04-0.07c-4.74-0.39-9.14-2.42-12.55-5.82
		c-0.21-0.21-0.4-0.41-0.6-0.63l4.96-9.92l8.18,16.37c0.01,0,0.02,0,0.04,0V45.62z M23.35,38.25L16.98,25.5l6.38-12.75V38.25z
		 M43.08,5.38l-1.7,3.39c-1.32-1.3-2.8-2.44-4.4-3.39H43.08z M26.65,5.38l0.03,0.07c4.74,0.39,9.14,2.42,12.55,5.82
		c0.21,0.21,0.4,0.41,0.6,0.63l-4.96,9.92L26.68,5.45c-0.01,0-0.02,0-0.03,0V5.38z M26.65,12.75l6.38,12.75l-6.38,12.75V12.75z
		 M26.65,45.62v-0.06c0.01,0,0.02,0,0.03,0l8.18-16.37l4.96,9.92c-0.19,0.21-0.39,0.42-0.6,0.63c-3.4,3.4-7.8,5.43-12.55,5.82
		L26.65,45.62z M36.99,45.62c1.6-0.96,3.08-2.1,4.4-3.4l1.7,3.39l0,0H36.99z M42.05,36.19L36.71,25.5l5.34-10.69
		c2,3.17,3.07,6.85,3.07,10.69C45.12,29.34,44.05,33.02,42.05,36.19z"/>
</g>
</svg>
